<svg width="96" height="96" viewBox="0 0 96 96" fill="none" xmlns="http://www.w3.org/2000/svg">
<g clip-path="url(#clip0_499_40)">
<path d="M86.4 0H9.6C7.05716 0.0105295 4.62148 1.02534 2.82341 2.82341C1.02534 4.62148 0.0105295 7.05716 0 9.6L0 86.4C0.0105295 88.9428 1.02534 91.3785 2.82341 93.1766C4.62148 94.9747 7.05716 95.9895 9.6 96H86.4C88.9428 95.9895 91.3785 94.9747 93.1766 93.1766C94.9747 91.3785 95.9895 88.9428 96 86.4V9.6C95.9895 7.05716 94.9747 4.62148 93.1766 2.82341C91.3785 1.02534 88.9428 0.0105295 86.4 0ZM28.18 57.86C30.2169 58.7882 32.539 58.8693 34.6357 58.0854C36.7323 57.3015 38.4317 55.7169 39.36 53.68H46C45.1441 57.1864 43.0331 60.2577 40.0661 62.3131C37.0992 64.3684 33.4819 65.2654 29.8984 64.8344C26.3148 64.4034 23.0134 62.6742 20.6185 59.9739C18.2235 57.2736 16.901 53.7894 16.901 50.18C16.901 46.5706 18.2235 43.0864 20.6185 40.3861C23.0134 37.6858 26.3148 35.9566 29.8984 35.5256C33.4819 35.0946 37.0992 35.9916 40.0661 38.0469C43.0331 40.1023 45.1441 43.1736 46 46.68H39.36C38.7948 45.4397 37.9375 44.3547 36.8616 43.5178C35.7857 42.6809 34.5231 42.1171 33.1818 41.8746C31.8405 41.632 30.4604 41.7179 29.1595 42.125C27.8586 42.532 26.6757 43.248 25.7119 44.2119C24.748 45.1757 24.032 46.3586 23.625 47.6595C23.2179 48.9604 23.132 50.3405 23.3746 51.6818C23.6171 53.0231 24.1809 54.2857 25.0178 55.3616C25.8547 56.4375 26.9397 57.2948 28.18 57.86ZM73.56 61.24C72.3045 62.3209 70.8695 63.1738 69.32 63.76C67.1049 64.6199 64.7146 64.9308 62.3532 64.6661C59.9919 64.4014 57.7297 63.569 55.76 62.24V63.76H49.72V21.48H55.72V37.92C57.8619 36.4719 60.3426 35.6037 62.92 35.4H64C67.0033 35.3953 69.9357 36.3119 72.4018 38.0261C74.8678 39.7403 76.7488 42.1696 77.7908 44.9863C78.8329 47.803 78.986 50.8715 78.2295 53.778C77.4729 56.6844 75.8432 59.2889 73.56 61.24ZM72.668 50.176C72.6924 51.2964 72.4929 52.4104 72.081 53.4526C71.6691 54.4948 71.0533 55.4442 70.2695 56.2453C69.4858 57.0463 68.55 57.6827 67.517 58.1172C66.484 58.5517 65.3746 58.7755 64.254 58.7755C63.1334 58.7755 62.024 58.5517 60.991 58.1172C59.958 57.6827 59.0222 57.0463 58.2385 56.2453C57.4547 55.4442 56.8389 54.4948 56.427 53.4526C56.0151 52.4104 55.8156 51.2964 55.84 50.176C55.888 47.9762 56.7955 45.8827 58.3682 44.3439C59.9409 42.8052 62.0537 41.9435 64.254 41.9435C66.4543 41.9435 68.5671 42.8052 70.1398 44.3439C71.7125 45.8827 72.62 47.9762 72.668 50.176Z" fill="#010101" fill-opacity="0.35"/>
</g>
<defs>
<clipPath id="clip0_499_40">
<rect width="96" height="96" fill="white"/>
</clipPath>
</defs>
</svg>
