<svg width="128" height="128" viewBox="0 0 128 128" fill="none" xmlns="http://www.w3.org/2000/svg">
<path d="M82.144 112V74.848H94.5867L96.448 60.4053H82.144V51.1893C82.144 47.008 83.3067 44.1547 89.3013 44.1547H96.9493V31.2373C93.2469 30.8445 89.5258 30.654 85.8027 30.6667C74.7787 30.6667 67.232 37.3973 67.232 49.76V60.4053H54.7627V74.848H67.232V112H21.3333C19.9188 112 18.5623 111.438 17.5621 110.438C16.5619 109.438 16 108.081 16 106.667V21.3333C16 19.9188 16.5619 18.5623 17.5621 17.5621C18.5623 16.5619 19.9188 16 21.3333 16H106.667C108.081 16 109.438 16.5619 110.438 17.5621C111.438 18.5623 112 19.9188 112 21.3333V106.667C112 108.081 111.438 109.438 110.438 110.438C109.438 111.438 108.081 112 106.667 112H82.144Z" fill="#010101" fill-opacity="0.35"/>
</svg>
