<svg width="128" height="128" viewBox="0 0 128 128" fill="none" xmlns="http://www.w3.org/2000/svg">
<path d="M64.0013 46.6665C59.4042 46.6665 54.9954 48.4927 51.7448 51.7433C48.4942 54.994 46.668 59.4028 46.668 63.9998C46.668 68.5969 48.4942 73.0057 51.7448 76.2564C54.9954 79.507 59.4042 81.3332 64.0013 81.3332C68.5984 81.3332 73.0072 79.507 76.2578 76.2564C79.5084 73.0057 81.3346 68.5969 81.3346 63.9998C81.3346 59.4028 79.5084 54.994 76.2578 51.7433C73.0072 48.4927 68.5984 46.6665 64.0013 46.6665Z" fill="#010101" fill-opacity="0.35"/>
<path fill-rule="evenodd" clip-rule="evenodd" d="M36.1083 16.4372C54.6471 14.3823 73.3562 14.3823 91.895 16.4372C102.023 17.5679 110.188 25.5412 111.378 35.7065C113.576 54.5047 113.576 73.495 111.378 92.2932C110.188 102.459 102.023 110.432 91.9003 111.568C73.3598 113.623 54.6489 113.623 36.1083 111.568C25.9803 110.432 17.815 102.459 16.6257 92.2985C14.4269 73.4986 14.4269 54.5065 16.6257 35.7065C17.815 25.5412 25.9803 17.5679 36.1083 16.4372ZM90.6683 31.9999C89.2538 31.9999 87.8973 32.5618 86.8971 33.562C85.8969 34.5622 85.335 35.9187 85.335 37.3332C85.335 38.7477 85.8969 40.1042 86.8971 41.1044C87.8973 42.1046 89.2538 42.6665 90.6683 42.6665C92.0828 42.6665 93.4394 42.1046 94.4396 41.1044C95.4398 40.1042 96.0016 38.7477 96.0016 37.3332C96.0016 35.9187 95.4398 34.5622 94.4396 33.562C93.4394 32.5618 92.0828 31.9999 90.6683 31.9999ZM38.6683 63.9999C38.6683 57.281 41.3374 50.8374 46.0883 46.0865C50.8392 41.3356 57.2828 38.6665 64.0016 38.6665C70.7205 38.6665 77.1641 41.3356 81.915 46.0865C86.6659 50.8374 89.335 57.281 89.335 63.9999C89.335 70.7187 86.6659 77.1623 81.915 81.9132C77.1641 86.6642 70.7205 89.3332 64.0016 89.3332C57.2828 89.3332 50.8392 86.6642 46.0883 81.9132C41.3374 77.1623 38.6683 70.7187 38.6683 63.9999Z" fill="#010101" fill-opacity="0.35"/>
</svg>
