<svg width="68" height="54" viewBox="0 0 68 54" fill="none" xmlns="http://www.w3.org/2000/svg">
<path d="M57.3346 0.333252H10.668C8.0158 0.333252 5.47226 1.38682 3.5969 3.26218C1.72154 5.13755 0.667969 7.68109 0.667969 10.3333V43.6666C0.667969 46.3188 1.72154 48.8623 3.5969 50.7377C5.47226 52.613 8.0158 53.6666 10.668 53.6666H57.3346C59.9868 53.6666 62.5303 52.613 64.4057 50.7377C66.2811 48.8623 67.3346 46.3188 67.3346 43.6666V10.3333C67.3346 7.68109 66.2811 5.13755 64.4057 3.26218C62.5303 1.38682 59.9868 0.333252 57.3346 0.333252ZM57.3346 6.99992L35.668 21.8999C35.1612 22.1925 34.5864 22.3465 34.0013 22.3465C33.4162 22.3465 32.8414 22.1925 32.3346 21.8999L10.668 6.99992H57.3346Z" fill="#010101" fill-opacity="0.35"/>
</svg>
