<svg width="108" height="86" viewBox="0 0 108 86" fill="none" xmlns="http://www.w3.org/2000/svg">
<path d="M91.3346 0.333252H16.668C12.4245 0.333252 8.35484 2.01896 5.35426 5.01954C2.35368 8.02013 0.667969 12.0898 0.667969 16.3333V69.6666C0.667969 73.91 2.35368 77.9797 5.35426 80.9803C8.35484 83.9809 12.4245 85.6666 16.668 85.6666H91.3346C95.5781 85.6666 99.6478 83.9809 102.648 80.9803C105.649 77.9797 107.335 73.91 107.335 69.6666V16.3333C107.335 12.0898 105.649 8.02013 102.648 5.01954C99.6478 2.01896 95.5781 0.333252 91.3346 0.333252ZM91.3346 10.9999L56.668 34.8399C55.8572 35.308 54.9375 35.5545 54.0013 35.5545C53.0651 35.5545 52.1454 35.308 51.3346 34.8399L16.668 10.9999H91.3346Z" fill="#010101" fill-opacity="0.35"/>
</svg>
