<svg width="112" height="128" viewBox="0 0 112 128" fill="none" xmlns="http://www.w3.org/2000/svg">
<path d="M12 8C5.375 8 0 13.375 0 20V108C0 114.625 5.375 120 12 120H100C106.625 120 112 114.625 112 108V20C112 13.375 106.625 8 100 8H12ZM81.3002 24C82.707 24 83.983 24.1628 85.1148 24.495C86.2338 24.8245 87.2373 25.2788 88.1225 25.8603C88.9952 26.4358 89.7502 27.1135 90.3735 27.8808C91.0001 28.6328 91.5236 29.4651 91.9303 30.3555C92.0868 30.6367 92.0425 30.8605 91.7927 31.017L88.3177 32.4458C88.0235 32.6028 87.8162 32.5228 87.6527 32.2125C86.873 30.7675 86.2078 29.8183 85.1148 29.128C84.0085 28.4405 82.9852 28.1143 81.3002 28.1143C79.4685 28.1143 78.65 28.4785 77.5025 29.3002C76.3643 30.106 75.53 31.1192 75.0375 32.663C74.9388 32.9415 74.849 33.287 74.7438 33.693C74.6572 34.1055 74.587 34.6105 74.5425 35.2018C74.4975 35.7933 74.4558 36.5255 74.4175 37.3887C74.392 38.252 74.3795 39.3003 74.3795 40.5153C74.3795 41.7363 74.392 42.7848 74.4175 43.6478C74.4558 44.5078 74.4975 45.2402 74.5425 45.8315C74.587 46.4293 74.6575 46.9315 74.7438 47.3473C74.849 47.7468 74.9388 48.0915 75.0375 48.373C75.53 49.9105 76.2332 50.7515 77.269 51.4263C78.292 52.1105 79.4685 52.603 81.3002 52.603C82.9277 52.603 84.4175 52.1392 85.3893 51.4325C86.3518 50.7262 87.1507 49.7927 87.5088 48.517C87.6655 47.98 87.867 47.3115 88.0045 46.4933C88.129 45.6748 88.1295 44.8088 88.1295 43.6133C88.1295 43.4245 88.0235 43.3283 87.8477 43.3283H82.2818C81.9685 43.3283 81.815 43.175 81.815 42.8618V39.6715C81.815 39.3548 81.9685 39.2012 82.2818 39.2012H92.496C92.816 39.2012 92.9662 39.3547 92.9662 39.6712V42.398C92.9662 43.843 92.9663 45.183 92.816 46.4232C92.672 47.6637 92.4772 48.7375 92.231 49.5205C91.451 51.973 90.2135 53.7188 88.3177 55.0195C86.4155 56.3302 83.9635 57.0365 81.3002 57.0365C78.5637 57.0365 76.259 56.4075 74.3795 55.1572C72.4965 53.8913 71.15 52.0333 70.3285 49.5493C70.1708 49.0728 70.047 48.5857 69.958 48.0918C69.862 47.59 69.7755 47.0048 69.6988 46.33C69.6188 45.6493 69.5677 44.8503 69.5362 43.9072C69.504 42.9707 69.4912 41.826 69.4912 40.5153C69.4912 39.1978 69.5042 38.0698 69.5362 37.13C69.568 36.1868 69.6188 35.3775 69.6988 34.703C69.7753 34.0317 69.862 33.4438 69.958 32.942C70.0505 32.437 70.1722 31.957 70.329 31.4872C71.1505 29.0033 72.4965 27.1362 74.3795 25.8827C76.259 24.6295 78.564 24 81.3002 24ZM43.3817 43.4533C54.274 43.4533 62.5825 48.4178 62.5825 59.1147C62.5825 66.3717 56.8535 73.6355 49.1172 75.4447C53.8005 83.757 59.4302 91.1103 63.6372 95.688C66.1117 98.3638 69.5488 100.755 72.9853 100.755V103.233C71.9373 103.715 70.2202 104 68.599 104C63.059 104 58.6695 101.807 55.799 98.3637C52.6527 94.7382 47.1125 86.9025 41.2875 76.4965C38.225 76.4965 36.2205 76.4965 33.9282 76.3047V92.251C33.9282 98.175 35.2713 99.4187 37.8478 99.793L42.816 100.47V103.233C40.4278 103.14 34.8875 102.951 30.591 102.951C26.099 102.951 21.6103 103.14 19.0335 103.233V100.47L22.6593 99.7925C25.1528 99.3198 26.5723 98.175 26.5723 92.2507V54.6265C26.5723 48.6995 25.1528 47.5613 22.6593 47.0815L19.0338 46.4165V43.645C21.4153 43.7375 25.239 43.7375 29.066 43.7375C33.26 43.7375 37.752 43.4533 43.3817 43.4533ZM41.665 47.7495C39.085 47.7495 36.131 47.7495 33.9282 47.9415V71.9027C36.131 72.1102 37.557 72.1967 40.8052 72.1967C49.309 72.1967 54.4625 67.136 54.4625 59.5913C54.4625 51.9573 49.6925 47.7495 41.665 47.7495Z" fill="#010101" fill-opacity="0.35"/>
</svg>
