<svg width="128" height="128" viewBox="0 0 128 128" fill="none" xmlns="http://www.w3.org/2000/svg">
<path d="M116 40V60C116 61.0609 115.579 62.0783 114.828 62.8284C114.078 63.5786 113.061 64 112 64C103.644 64.0194 95.4083 62.0102 88 58.145V78C88 88.0782 83.9964 97.7437 76.8701 104.87C69.7437 111.996 60.0782 116 50 116C39.9218 116 30.2563 111.996 23.1299 104.87C16.0036 97.7437 12 88.0782 12 78C12 59.55 25.455 43.24 43.3 40.06C43.8757 39.9577 44.4668 39.9828 45.0317 40.1336C45.5966 40.2844 46.1216 40.5573 46.5697 40.9329C47.0178 41.3085 47.3781 41.7778 47.6252 42.3077C47.8723 42.8376 48.0003 43.4153 48 44V65.345C48.0002 66.102 47.7857 66.8436 47.3812 67.4835C46.9767 68.1234 46.3989 68.6354 45.715 68.96C44.0982 69.7268 42.7167 70.9133 41.7147 72.3959C40.7128 73.8785 40.1269 75.6028 40.0184 77.3889C39.9099 79.175 40.2826 80.9576 41.0977 82.5505C41.9128 84.1435 43.1404 85.4886 44.6525 86.4455C46.1646 87.4024 47.9057 87.936 49.6943 87.9907C51.4829 88.0454 53.2534 87.6192 54.8211 86.7565C56.3888 85.8938 57.6964 84.6263 58.6073 83.086C59.5182 81.5458 59.9992 79.7894 60 78V12C60 10.9391 60.4214 9.92172 61.1716 9.17157C61.9217 8.42143 62.9391 8 64 8H84C85.0609 8 86.0783 8.42143 86.8284 9.17157C87.5786 9.92172 88 10.9391 88 12C88.0066 18.3632 90.5373 24.4638 95.0367 28.9633C99.5362 33.4627 105.637 35.9934 112 36C113.061 36 114.078 36.4214 114.828 37.1716C115.579 37.9217 116 38.9391 116 40Z" fill="#010101" fill-opacity="0.35"/>
</svg>
