<svg width="128" height="128" viewBox="0 0 128 128" fill="none" xmlns="http://www.w3.org/2000/svg">
<mask id="mask0_499_55" style="mask-type:luminance" maskUnits="userSpaceOnUse" x="7" y="13" width="113" height="102">
<path d="M13.332 95.3651C18.476 98.2105 55.708 119.672 82.1854 103.13C108.66 86.5891 107.199 58.0905 107.199 45.0291C109.599 40.0051 114.665 37.4505 114.665 23.8505C109.689 28.4478 104.743 30.0105 99.8254 28.5438C95.0094 21.1998 88.3827 17.9491 79.9427 18.7971C67.2867 20.0691 62.6574 32.4851 64.02 48.5518C44.5054 58.4185 29.204 41.3971 21.316 28.5438C18.6814 38.6665 16.1427 50.8211 21.316 64.2638C24.7667 73.2291 33.0627 80.8051 46.1987 86.9998C32.884 94.2131 21.9294 97.0051 13.332 95.3651Z" fill="white" stroke="white" stroke-width="10.6667" stroke-linejoin="round"/>
</mask>
<g mask="url(#mask0_499_55)">
<path d="M0 0H128V128H0V0Z" fill="#010101" fill-opacity="0.35"/>
</g>
</svg>
