<svg width="128" height="128" viewBox="0 0 128 128" fill="none" xmlns="http://www.w3.org/2000/svg">
<path d="M87.2546 74.6665C87.6813 71.1465 88.0013 67.6265 88.0013 63.9998C88.0013 60.3732 87.6813 56.8532 87.2546 53.3332H105.281C106.135 56.7465 106.668 60.3198 106.668 63.9998C106.668 67.6798 106.135 71.2532 105.281 74.6665M77.8146 104.32C81.0146 98.3998 83.468 91.9998 85.1746 85.3332H100.908C95.7409 94.2306 87.5432 100.97 77.8146 104.32ZM76.4813 74.6665H51.5213C50.988 71.1465 50.668 67.6265 50.668 63.9998C50.668 60.3732 50.988 56.7998 51.5213 53.3332H76.4813C76.9613 56.7998 77.3346 60.3732 77.3346 63.9998C77.3346 67.6265 76.9613 71.1465 76.4813 74.6665ZM64.0013 106.453C59.5746 100.053 56.0013 92.9598 53.8146 85.3332H74.188C72.0013 92.9598 68.428 100.053 64.0013 106.453ZM42.668 42.6665H27.0946C32.2085 33.745 40.4002 26.9944 50.1346 23.6798C46.9346 29.5998 44.5346 35.9998 42.668 42.6665ZM27.0946 85.3332H42.668C44.5346 91.9998 46.9346 98.3998 50.1346 104.32C40.4206 100.969 32.2405 94.2277 27.0946 85.3332ZM22.7213 74.6665C21.868 71.2532 21.3346 67.6798 21.3346 63.9998C21.3346 60.3198 21.868 56.7465 22.7213 53.3332H40.748C40.3213 56.8532 40.0013 60.3732 40.0013 63.9998C40.0013 67.6265 40.3213 71.1465 40.748 74.6665M64.0013 21.4932C68.428 27.8932 72.0013 35.0398 74.188 42.6665H53.8146C56.0013 35.0398 59.5746 27.8932 64.0013 21.4932ZM100.908 42.6665H85.1746C83.5054 36.0609 81.0337 29.6846 77.8146 23.6798C87.628 27.0398 95.788 33.8132 100.908 42.6665ZM64.0013 10.6665C34.508 10.6665 10.668 34.6665 10.668 63.9998C10.668 78.1447 16.287 91.7103 26.2889 101.712C31.2414 106.665 37.1208 110.593 43.5915 113.273C50.0622 115.954 56.9975 117.333 64.0013 117.333C78.1462 117.333 91.7117 111.714 101.714 101.712C111.716 91.7103 117.335 78.1447 117.335 63.9998C117.335 56.996 115.955 50.0608 113.275 43.5901C110.595 37.1194 106.666 31.2399 101.714 26.2875C96.7612 21.335 90.8818 17.4065 84.4111 14.7263C77.9404 12.046 71.0051 10.6665 64.0013 10.6665Z" fill="#010101" fill-opacity="0.35"/>
</svg>
