<svg width="128" height="128" viewBox="0 0 128 128" fill="none" xmlns="http://www.w3.org/2000/svg">
<g clip-path="url(#clip0_499_11)">
<path fill-rule="evenodd" clip-rule="evenodd" d="M64.0013 21.3335C68.5613 21.3335 73.2386 21.4508 77.772 21.6428L83.1266 21.8988L88.252 22.2028L93.052 22.5282L97.436 22.8695C102.194 23.2336 106.67 25.2639 110.079 28.603C113.487 31.9422 115.609 36.3764 116.071 41.1255L116.284 43.3922L116.684 48.2455C117.057 53.2748 117.335 58.7575 117.335 64.0002C117.335 69.2428 117.057 74.7255 116.684 79.7548L116.284 84.6082C116.215 85.3868 116.145 86.1388 116.071 86.8748C115.609 91.6248 113.486 96.0596 110.077 99.3989C106.667 102.738 102.189 104.768 97.4306 105.131L93.0573 105.467L88.2573 105.798L83.1266 106.101L77.772 106.357C73.1844 106.557 68.5932 106.66 64.0013 106.667C59.4094 106.66 54.8182 106.557 50.2306 106.357L44.876 106.101L39.7506 105.798L34.9506 105.467L30.5666 105.131C25.809 104.767 21.3322 102.736 17.9238 99.3973C14.5154 96.0581 12.3937 91.6239 11.932 86.8748L11.7186 84.6082L11.3186 79.7548C10.9108 74.5129 10.6938 69.2579 10.668 64.0002C10.668 58.7575 10.9453 53.2748 11.3186 48.2455L11.7186 43.3922C11.788 42.6135 11.8573 41.8615 11.932 41.1255C12.3935 36.3772 14.5145 31.9437 17.9218 28.6047C21.3291 25.2656 25.8047 23.2348 30.5613 22.8695L34.94 22.5282L39.74 22.2028L44.8706 21.8988L50.2253 21.6428C54.8146 21.4435 59.4076 21.3404 64.0013 21.3335ZM53.3346 51.0668V76.9335C53.3346 79.3975 56.0013 80.9335 58.1346 79.7068L80.5346 66.7735C81.0221 66.4929 81.4269 66.0888 81.7085 65.6019C81.99 65.1151 82.1382 64.5626 82.1382 64.0002C82.1382 63.4378 81.99 62.8853 81.7085 62.3984C81.4269 61.9115 81.0221 61.5074 80.5346 61.2268L58.1346 48.2988C57.648 48.0179 57.096 47.87 56.5341 47.8701C55.9722 47.8702 55.4203 48.0182 54.9337 48.2993C54.4472 48.5804 54.0433 48.9847 53.7626 49.4714C53.4819 49.9582 53.3343 50.5103 53.3346 51.0722V51.0668Z" fill="#010101" fill-opacity="0.35"/>
</g>
<defs>
<clipPath id="clip0_499_11">
<rect width="128" height="128" fill="white"/>
</clipPath>
</defs>
</svg>
